<?xml version="1.0" standalone="no"?>
<!DOCTYPE svg PUBLIC "-//W3C//DTD SVG 20010904//EN"
 "http://www.w3.org/TR/2001/REC-SVG-20010904/DTD/svg10.dtd">
<svg version="1.0" xmlns="http://www.w3.org/2000/svg"
 width="300.000000pt" height="380.000000pt" viewBox="0 0 300.000000 380.000000"
 preserveAspectRatio="xMidYMid meet">

<g transform="translate(0.000000,380.000000) scale(0.100000,-0.100000)"
fill="#000000" stroke="none">
<path d="M2885 3645 c-96 -151 -206 -382 -290 -612 l-48 -133 -39 60 c-38 58
-113 132 -153 152 -11 5 -6 -1 10 -13 51 -38 121 -118 150 -171 l27 -50 -20
-71 c-29 -99 -68 -282 -87 -402 -14 -91 -18 -103 -48 -129 -34 -30 -153 -90
-201 -102 -28 -7 -29 -6 -24 26 5 32 5 32 -31 26 -20 -3 -64 -6 -98 -6 -61 0
-63 -1 -63 -26 0 -25 -2 -26 -39 -21 -119 16 -283 139 -348 263 -64 120 -79
278 -38 393 8 24 13 46 11 48 -9 10 -38 -98 -43 -162 -19 -246 155 -486 398
-549 l54 -14 -3 -53 c-9 -129 -88 -326 -183 -458 -30 -40 -61 -83 -69 -94 -21
-29 82 46 151 111 118 109 223 275 271 430 17 53 27 72 40 72 31 0 145 50 194
85 27 19 49 33 50 32 1 -1 -3 -36 -8 -77 -14 -110 -13 -528 1 -650 24 -214 73
-460 126 -643 54 -184 205 -557 226 -557 13 0 14 -2 -42 122 -226 497 -330
1052 -299 1585 13 221 16 240 50 283 50 64 88 134 105 193 22 76 22 206 0 283
l-16 59 44 127 c63 178 153 378 247 547 82 148 100 197 35 96z m-308 -936 c4
-53 1 -107 -7 -140 -15 -64 -61 -162 -96 -204 l-26 -30 6 65 c7 69 52 285 81
385 16 55 19 58 27 35 6 -14 12 -64 15 -111z m-437 -549 c0 -6 -33 -9 -82 -8
l-83 1 65 7 c36 4 73 7 83 8 9 1 17 -2 17 -8z"/>
<path d="M451 3554 c-71 -81 -150 -212 -180 -299 l-11 -30 23 29 c12 16 42 53
66 83 44 56 156 251 148 259 -3 3 -23 -16 -46 -42z"/>
<path d="M840 3498 c-18 -35 -49 -86 -67 -115 -18 -29 -33 -56 -33 -61 0 -5
28 -5 64 0 67 9 215 -8 306 -34 l44 -14 -132 -83 c-124 -78 -149 -97 -141
-106 2 -1 70 39 152 91 l147 94 87 -40 c97 -45 224 -127 298 -193 l50 -45 -18
-33 -18 -34 22 28 21 28 24 -22 24 -23 48 46 c58 56 108 86 178 107 l54 17
-78 80 c-104 108 -195 175 -327 240 -176 86 -389 134 -590 134 l-80 0 -35 -62z
m973 -362 c-33 -18 -81 -48 -105 -66 -39 -31 -41 -32 -18 -6 33 37 140 106
165 106 12 0 -6 -14 -42 -34z"/>
<path d="M574 3494 c14 -36 257 -394 267 -394 8 0 8 4 2 13 -5 6 -67 99 -136
205 -115 174 -150 221 -133 176z"/>
<path d="M540 3341 c0 -21 192 -311 202 -305 5 3 0 17 -10 32 -10 15 -54 81
-97 147 -88 136 -95 145 -95 126z"/>
<path d="M185 3223 c10 -16 24 -37 31 -47 11 -16 9 -26 -10 -65 -63 -125 -106
-300 -106 -432 l0 -69 -41 -27 c-23 -15 -36 -29 -30 -31 6 -2 24 6 41 18 34
24 35 23 45 -55 19 -149 111 -350 217 -473 15 -18 28 -29 28 -25 0 4 4 2 9 -6
7 -10 14 -8 37 13 16 14 50 40 77 57 l47 31 -49 63 c-27 34 -46 66 -43 72 4 5
63 44 132 88 147 92 133 82 123 88 -4 3 -64 -31 -133 -74 -68 -44 -130 -79
-136 -79 -12 0 -60 68 -53 74 2 2 56 36 119 76 118 74 147 96 139 104 -2 2
-64 -33 -137 -80 -73 -46 -134 -84 -136 -84 -4 0 -71 148 -80 176 -6 19 8 31
109 94 63 40 115 77 115 82 0 9 -24 -4 -125 -67 -27 -17 -63 -39 -79 -49 -34
-21 -43 -14 -52 40 l-6 41 103 63 c56 35 97 66 91 68 -7 2 -53 -22 -102 -54
-71 -45 -94 -54 -103 -45 -16 16 -17 388 -1 415 11 17 23 3 109 -127 53 -81
101 -147 107 -147 11 0 19 -13 -129 213 -68 103 -129 187 -135 187 -6 0 -2
-12 7 -27z"/>
<path d="M337 3207 c49 -82 197 -297 205 -297 12 0 3 15 -101 173 -50 75 -96
137 -102 137 -6 0 -7 -6 -2 -13z"/>
<path d="M1155 3137 c-191 -120 -217 -138 -211 -144 7 -7 316 186 316 198 0
13 5 15 -105 -54z"/>
<path d="M497 3178 c5 -7 38 -57 73 -110 54 -84 80 -114 80 -93 0 14 -142 215
-151 215 -8 0 -8 -4 -2 -12z"/>
<path d="M2168 3183 c7 -3 16 -2 19 1 4 3 -2 6 -13 5 -11 0 -14 -3 -6 -6z"/>
<path d="M1115 2975 c-55 -36 -102 -70 -104 -77 -3 -9 3 -8 20 3 13 8 63 40
111 70 77 47 105 71 81 68 -5 0 -53 -29 -108 -64z"/>
<path d="M1222 2904 c-84 -53 -152 -100 -152 -106 0 -6 10 -4 23 4 12 8 78 50
147 93 127 79 162 105 144 105 -5 0 -78 -43 -162 -96z"/>
<path d="M710 2938 l-15 -43 -48 3 c-48 4 -49 4 -36 -20 31 -59 52 -77 101
-88 27 -5 53 -8 58 -5 4 3 11 27 15 54 6 43 3 56 -20 95 -15 25 -30 46 -34 46
-4 0 -13 -19 -21 -42z"/>
<path d="M1410 2885 c-74 -47 -168 -107 -209 -132 -41 -26 -69 -49 -63 -51 10
-3 382 226 412 254 34 33 -14 8 -140 -71z"/>
<path d="M880 2911 c-41 -25 -47 -35 -58 -81 -7 -29 -11 -55 -9 -56 2 -2 28
-9 58 -15 53 -11 57 -10 103 19 l48 31 -37 15 c-21 9 -41 16 -46 16 -4 0 -9
22 -11 50 l-3 49 -45 -28z"/>
<path d="M599 2735 l-52 -32 50 -17 50 -17 -5 -50 -5 -51 43 23 c53 30 68 53
72 108 l3 44 -52 12 c-50 11 -53 11 -104 -20z"/>
<path d="M790 2677 c-12 -54 -12 -55 20 -102 l33 -48 17 44 16 44 47 -3 c26
-2 47 0 47 4 0 16 -56 94 -70 98 -8 3 -34 7 -57 11 l-41 6 -12 -54z"/>
<path d="M1120 2666 c0 -3 59 -94 131 -203 115 -175 149 -220 149 -199 0 3
-59 95 -131 203 -114 174 -149 220 -149 199z"/>
<path d="M449 2554 c-117 -74 -114 -72 -107 -79 6 -6 191 106 218 131 33 32
-13 10 -111 -52z"/>
<path d="M1027 2603 c-5 -9 188 -306 203 -311 6 -2 10 -1 10 2 0 14 -208 317
-213 309z"/>
<path d="M954 2486 c77 -120 109 -166 117 -166 15 0 11 8 -61 115 -72 107
-119 150 -56 51z"/>
<path d="M836 2453 c139 -213 187 -283 196 -283 11 0 16 -9 -99 168 -51 78
-98 142 -104 142 -7 0 -4 -11 7 -27z"/>
<path d="M721 2414 c15 -34 274 -414 277 -405 5 14 -251 404 -268 409 -7 3
-11 1 -9 -4z"/>
<path d="M2145 1890 l-110 -68 2 -103 c8 -381 123 -915 274 -1268 57 -131 149
-299 215 -387 l45 -61 104 31 c58 17 105 33 105 37 0 4 -23 42 -50 83 -273
413 -460 1080 -460 1644 0 89 -3 162 -7 161 -5 0 -57 -31 -118 -69z"/>
<path d="M1163 1512 l-81 -66 124 -82 c248 -164 481 -366 679 -588 l60 -67
100 27 c55 14 104 30 109 34 24 23 -332 397 -519 546 -98 77 -370 265 -383
263 -4 0 -44 -30 -89 -67z"/>
</g>
</svg>
