<?xml version="1.0" standalone="no"?>
<!DOCTYPE svg PUBLIC "-//W3C//DTD SVG 20010904//EN"
 "http://www.w3.org/TR/2001/REC-SVG-20010904/DTD/svg10.dtd">
<svg version="1.0" xmlns="http://www.w3.org/2000/svg"
 width="395.000000pt" height="121.000000pt" viewBox="0 0 395.000000 121.000000"
 preserveAspectRatio="xMidYMid meet">

<g transform="translate(0.000000,121.000000) scale(0.100000,-0.100000)"
fill="#000000" stroke="none">
<path d="M3401 1197 c-43 -14 -130 -93 -160 -147 l-24 -43 24 6 c13 4 59 14
101 23 69 16 78 20 83 44 11 52 43 90 74 90 16 0 37 -7 46 -16 24 -24 12 -27
-23 -7 -28 16 -33 16 -46 3 -8 -8 -19 -32 -24 -52 -12 -43 -11 -43 70 -32 44
6 45 7 55 56 l10 50 -41 19 c-45 21 -93 23 -145 6z"/>
<path d="M3690 1011 c0 -35 3 -41 21 -41 23 0 60 -18 71 -34 41 -61 -56 -190
-209 -277 -24 -13 -43 -29 -43 -34 0 -18 -68 -154 -100 -200 l-30 -43 38 11
c20 5 85 11 144 11 98 1 107 3 112 21 8 30 61 90 69 78 4 -6 -5 -23 -19 -38
-14 -15 -22 -30 -19 -34 9 -8 88 81 136 153 48 73 75 145 83 221 7 59 6 60
-11 35 -26 -39 -112 -120 -125 -120 -7 0 4 14 25 31 49 40 77 96 77 155 0 39
-5 51 -33 79 -32 32 -66 46 -149 61 l-38 6 0 -41z"/>
<path d="M3334 1008 l-72 -20 15 -38 c14 -35 14 -41 -3 -77 -12 -25 -32 -44
-57 -57 -34 -16 -42 -17 -75 -4 -20 7 -46 28 -58 46 l-22 32 -39 -44 c-62 -71
-81 -166 -45 -236 31 -62 107 -81 133 -34 15 29 92 100 124 116 11 5 1 -7 -22
-27 -37 -32 -83 -92 -83 -109 0 -19 138 4 151 25 9 15 131 441 127 444 -2 1
-35 -6 -74 -17z"/>
<path d="M250 991 c0 -17 -9 -19 -89 -23 -78 -3 -93 -6 -115 -27 -61 -57 -61
-275 0 -332 22 -21 37 -24 115 -27 86 -4 89 -5 89 -28 0 -23 2 -24 75 -24 73
0 75 1 75 25 0 24 2 25 74 25 131 0 162 25 173 144 9 100 -4 172 -37 209 -27
31 -32 32 -119 35 -82 4 -91 6 -91 23 0 17 -8 19 -75 19 -67 0 -75 -2 -75 -19z
m0 -216 l0 -75 -29 0 c-37 0 -61 31 -61 79 0 43 24 71 62 71 l28 0 0 -75z
m222 58 c23 -21 24 -89 1 -115 -9 -10 -29 -18 -45 -18 l-28 0 0 75 c0 75 0 75
27 75 14 0 35 -7 45 -17z"/>
<path d="M3672 916 c-6 -22 -27 -60 -47 -83 -20 -23 -44 -67 -55 -98 l-19 -55
57 39 c83 57 152 139 152 182 0 19 -27 44 -56 51 -17 4 -22 -2 -32 -36z"/>
<path d="M697 893 c-11 -10 -8 -299 3 -328 5 -14 22 -30 37 -36 52 -20 78 -3
160 101 43 55 82 99 87 100 5 0 6 -43 3 -100 l-6 -100 69 0 70 0 0 160 c0 159
0 161 -25 186 -20 20 -34 24 -62 22 -34 -3 -45 -12 -114 -98 -43 -52 -83 -96
-90 -99 -9 -3 -10 20 -5 98 l8 101 -65 0 c-35 0 -67 -3 -70 -7z"/>
<path d="M1140 850 l0 -50 70 0 70 0 0 -135 0 -135 65 0 65 0 0 135 0 135 70
0 70 0 0 50 0 50 -205 0 -205 0 0 -50z"/>
<path d="M1577 894 c-4 -4 -7 -88 -7 -186 l0 -178 70 0 70 0 0 70 0 70 60 0
60 0 0 -70 0 -70 65 0 65 0 0 185 0 185 -65 0 -65 0 0 -65 0 -65 -60 0 -59 0
-3 63 -3 62 -60 3 c-34 2 -64 0 -68 -4z"/>
<path d="M2072 889 c-55 -16 -72 -57 -72 -172 0 -158 24 -187 152 -187 57 0
69 -3 65 -14 -3 -8 -18 -70 -32 -138 -15 -68 -31 -134 -36 -147 -9 -21 -7 -23
13 -18 58 15 222 38 311 44 87 5 97 4 97 -11 0 -30 -60 -136 -103 -183 -41
-45 -41 -45 -11 -30 42 22 88 76 124 147 17 33 35 60 40 60 6 0 21 -7 34 -16
17 -10 26 -12 31 -4 4 6 -9 17 -29 25 -20 9 -36 16 -36 18 0 1 11 36 24 77
l24 75 73 17 74 17 -67 -2 c-74 -3 -75 -1 -57 52 10 28 15 31 50 31 l39 0 0
45 c0 41 -2 45 -25 45 -31 0 -31 8 0 54 23 34 23 36 4 26 -11 -7 -30 -27 -41
-46 -19 -32 -23 -34 -72 -34 -39 0 -57 5 -69 18 -22 24 -23 110 -1 140 14 20
23 22 105 22 l89 0 0 51 0 51 -128 -4 c-181 -5 -212 -29 -220 -166 -8 -150 35
-202 166 -202 74 0 74 0 68 -25 -12 -48 -26 -75 -38 -75 -9 0 -9 -3 -1 -11 14
-14 0 -56 -25 -76 -9 -8 -11 -12 -4 -8 13 7 15 -9 3 -40 -7 -19 -18 -20 -142
-21 -117 -1 -180 -8 -252 -30 -17 -5 -17 -3 3 36 24 48 60 179 60 222 0 28 1
28 60 28 l60 0 0 50 0 50 -52 1 c-29 1 -81 1 -115 0 -53 -3 -63 0 -72 18 -12
21 -10 21 96 21 146 0 157 7 151 101 -3 59 -8 73 -31 97 -26 26 -32 27 -140
29 -61 1 -127 -2 -145 -8z m178 -94 c6 -8 9 -19 5 -25 -8 -12 -125 -14 -125
-1 0 36 94 57 120 26z"/>
<path d="M3507 753 c-4 -3 -35 -9 -69 -12 l-62 -6 -17 -70 c-10 -38 -16 -71
-15 -73 2 -1 33 9 69 23 63 25 66 29 87 81 21 50 23 74 7 57z"/>
<path d="M2820 710 c19 -4 44 -11 55 -14 20 -8 20 -7 1 8 -11 9 -36 15 -55 15
l-36 -1 35 -8z"/>
<path d="M3398 576 c-31 -12 -59 -24 -62 -27 -11 -11 -87 -281 -81 -287 15
-15 163 -3 225 18 71 24 160 71 181 96 11 14 6 15 -52 9 -35 -4 -106 -13 -158
-21 -52 -8 -96 -13 -98 -11 -2 2 8 24 21 48 29 51 89 190 84 194 -2 1 -29 -7
-60 -19z"/>
<path d="M3172 517 c-53 -8 -63 -13 -68 -33 -10 -40 16 -125 51 -162 l32 -35
41 121 c34 104 38 122 24 121 -9 -1 -45 -6 -80 -12z"/>
<path d="M2508 473 c7 -3 16 -2 19 1 4 3 -2 6 -13 5 -11 0 -14 -3 -6 -6z"/>
<path d="M2802 403 c-18 -9 -38 -25 -44 -36 -9 -17 -7 -24 12 -39 24 -20 50
-24 50 -8 0 6 -4 10 -9 10 -5 0 -12 7 -15 15 -11 30 38 80 54 55 5 -7 11 -6
20 5 11 13 9 15 -11 15 -13 0 -39 -8 -57 -17z"/>
<path d="M2468 393 c-40 -47 -22 -84 40 -82 32 1 34 2 12 8 -22 6 -25 13 -25
49 0 46 -5 51 -27 25z"/>
<path d="M2949 363 c-13 -16 -12 -17 4 -4 16 13 21 21 13 21 -2 0 -10 -8 -17
-17z"/>
<path d="M1984 161 c12 -19 124 -91 180 -116 30 -13 71 -26 92 -30 33 -5 30
-3 -16 13 -70 24 -129 54 -204 105 -32 22 -56 35 -52 28z"/>
<path d="M2318 3 c12 -2 32 -2 45 0 12 2 2 4 -23 4 -25 0 -35 -2 -22 -4z"/>
</g>
</svg>
