<?xml version="1.0" standalone="no"?>
<!DOCTYPE svg PUBLIC "-//W3C//DTD SVG 20010904//EN"
 "http://www.w3.org/TR/2001/REC-SVG-20010904/DTD/svg10.dtd">
<svg version="1.0" xmlns="http://www.w3.org/2000/svg"
 width="626.000000pt" height="626.000000pt" viewBox="0 0 626.000000 626.000000"
 preserveAspectRatio="xMidYMid meet">

<g transform="translate(0.000000,626.000000) scale(0.100000,-0.100000)"
fill="#000000" stroke="none">
<path d="M1777 4253 c-4 -3 -7 -25 -7 -47 l0 -41 -122 0 -123 0 -6 -115 c-10
-181 -13 -192 -18 -80 l-6 105 -110 3 c-95 2 -111 0 -123 -15 -10 -13 -12
-111 -12 -438 1 -231 4 -426 9 -433 6 -10 38 -12 129 -10 l122 3 0 -40 c0 -23
5 -46 12 -53 8 -8 49 -12 120 -12 l108 0 1 53 c1 28 4 97 8 152 l7 100 8 -157
c5 -86 6 -168 2 -182 -13 -51 -3 -56 118 -56 74 0 116 4 124 12 9 9 12 80 12
260 l0 248 154 0 154 0 64 112 c34 62 65 116 66 120 2 4 -96 8 -217 8 l-221 0
0 243 c0 176 -3 246 -12 255 -13 13 -229 18 -241 5z"/>
<path d="M4236 4244 c-3 -8 -6 -123 -6 -255 l0 -239 -651 -2 -651 -3 -69 -119
c-38 -65 -69 -119 -69 -120 0 0 324 0 720 2 l720 2 0 -248 c0 -180 3 -251 12
-260 17 -17 224 -17 235 1 4 6 7 57 5 112 -1 55 2 138 7 185 l8 85 2 -70 c0
-38 4 -107 8 -152 l6 -83 106 0 c70 0 111 4 119 12 7 7 12 30 12 53 l0 40 125
-3 125 -3 0 445 0 446 -22 5 c-13 3 -66 5 -118 3 l-95 -3 -6 -105 c-6 -123 -9
-112 -18 65 l-6 130 -122 0 -122 0 -3 45 -3 45 -121 3 c-104 2 -123 0 -128
-14z"/>
<path d="M1402 2629 c-7 -28 -12 -55 -12 -60 0 -5 94 -9 225 -9 l224 0 10 38
c5 20 11 47 14 60 l5 22 -227 0 -228 0 -11 -51z"/>
<path d="M1955 2658 c-8 -35 -125 -591 -125 -595 0 -2 30 -3 67 -1 l67 3 62
295 c35 162 63 301 64 308 0 8 -19 12 -65 12 -59 0 -65 -2 -70 -22z"/>
<path d="M2177 2673 c-2 -5 -7 -25 -11 -46 -4 -21 -10 -45 -13 -53 -4 -11 9
-14 71 -14 42 0 76 -4 76 -8 0 -5 -9 -51 -20 -103 -35 -161 -80 -376 -80 -383
0 -6 129 -9 130 -3 1 1 24 112 53 247 l53 245 76 3 77 3 10 50 c6 27 11 54 11
59 0 12 -427 14 -433 3z"/>
<path d="M2631 2383 c-35 -164 -64 -302 -65 -308 0 -5 26 -11 60 -13 l60 -3
44 206 c24 113 44 205 46 205 1 0 55 -92 120 -205 l118 -205 42 0 c32 0 44 4
48 18 3 9 30 139 61 287 31 149 59 280 62 293 5 22 4 23 -58 20 l-63 -3 -37
-173 c-20 -95 -39 -175 -42 -178 -6 -6 -13 5 -120 201 l-83 150 -65 3 -65 3
-63 -298z"/>
<path d="M3325 2634 c-3 -26 -9 -52 -12 -60 -4 -10 40 -13 225 -14 l230 -1 7
38 c3 21 9 48 12 61 l5 22 -230 0 -230 0 -7 -46z"/>
<path d="M3929 2665 c-32 -18 -44 -45 -69 -158 -26 -117 -26 -153 -1 -167 11
-5 84 -10 165 -10 80 0 147 -4 150 -9 8 -12 -13 -112 -26 -128 -8 -10 -57 -13
-183 -13 l-173 0 -11 -50 c-6 -28 -11 -55 -11 -60 0 -14 385 -13 433 1 21 5
44 21 54 35 18 28 62 210 63 260 0 50 -11 54 -169 54 -81 0 -152 4 -160 9 -11
7 -11 18 -2 62 6 29 16 59 23 66 8 10 52 13 179 13 186 0 171 -6 185 73 l6 37
-213 0 c-163 -1 -220 -4 -240 -15z"/>
<path d="M4535 2671 c-39 -16 -56 -49 -80 -157 -43 -188 -46 -184 156 -184
172 0 169 2 147 -88 l-14 -57 -181 -3 -181 -2 -7 -38 c-3 -20 -9 -47 -12 -59
l-5 -23 198 0 c209 0 259 7 289 40 20 22 65 202 65 261 0 57 -12 61 -172 60
-79 -1 -149 3 -156 7 -10 7 -10 19 0 63 6 30 16 60 21 67 7 9 56 12 182 12
l172 0 10 55 10 55 -211 -1 c-116 0 -220 -4 -231 -8z"/>
<path d="M1375 2498 c-12 -37 -91 -429 -87 -433 3 -3 34 -5 68 -5 51 0 64 3
68 18 2 9 14 65 27 125 l22 107 117 0 117 0 10 50 10 50 -113 0 c-126 0 -124
-1 -105 68 l10 32 -70 0 c-47 0 -71 -4 -74 -12z"/>
<path d="M3300 2508 c0 -2 -20 -97 -45 -213 -25 -115 -45 -215 -45 -222 0 -10
51 -13 225 -13 l225 0 6 28 c3 15 10 42 14 60 l8 32 -160 0 -160 0 7 33 c4 17
11 49 16 70 l10 37 113 0 113 0 10 45 10 45 -115 0 -114 0 6 36 c4 19 10 42
13 50 4 11 -8 14 -66 14 -39 0 -71 -1 -71 -2z"/>
</g>
</svg>
